<svg xmlns="http://www.w3.org/2000/svg" viewBox="0 0 23.968 24">
  <g data-name="Layer 2">
    <g fill="#001738" data-name="Layer 1">
      <path d="M7.74 13.207v-.7a2.5 2.5 0 0 1-.645-.172A1.92 1.92 0 0 1 6.51 12l.45-.7a2.362 2.362 0 0 0 .51.307 1.237 1.237 0 0 0 .487.105.682.682 0 0 0 .435-.12.472.472 0 0 0 .135-.367.4.4 0 0 0-.135-.307 1.845 1.845 0 0 0-.345-.24 4.867 4.867 0 0 0-.442-.232 2.94 2.94 0 0 1-.442-.277 1.4 1.4 0 0 1-.345-.42.982.982 0 0 1-.135-.532 1.29 1.29 0 0 1 .285-.862 1.3 1.3 0 0 1 .75-.435v-.75H8.4v.7a1.687 1.687 0 0 1 .585.2 2 2 0 0 1 .457.375l-.517.585a1.77 1.77 0 0 0-.367-.262.938.938 0 0 0-.4-.082.577.577 0 0 0-.382.1.4.4 0 0 0-.135.345.345.345 0 0 0 .135.277 1.717 1.717 0 0 0 .345.225l.442.217a2.407 2.407 0 0 1 .442.27 1.417 1.417 0 0 1 .345.39 1.125 1.125 0 0 1 .135.57 1.4 1.4 0 0 1-.245.92 1.32 1.32 0 0 1-.817.48v.75Z" data-name="Path 4836"/>
      <path d="M23.7 7.59c-.21-.045-.81-.172-1.62-.285L23.055 6a1.612 1.612 0 0 0 .307-1.2 1.425 1.425 0 0 0-.585-.96 1.567 1.567 0 0 0-2.167.382l-2.11 2.82a9.8 9.8 0 0 0-1.785.172V5.062a.383.383 0 0 0-.113-.277L11.49.1a.382.382 0 0 0-.24-.1H.382A.375.375 0 0 0 0 .375v23.25A.375.375 0 0 0 .382 24h15.953a.375.375 0 0 0 .382-.375v-7.268a10.5 10.5 0 0 0 6.157-2.61.375.375 0 0 0 0-.525.383.383 0 0 0-.54-.037c-1.875 1.687-4.852 2.857-7.327 2.25-.195-.045-1.057-.315-.96-.87.12-.7.75-.87 3.052-.652a1.567 1.567 0 0 0 1.087-.277 3.187 3.187 0 0 0 .832-2.295l2.527-3.375c.75.1 1.462.217 1.965.33a.375.375 0 0 0 .45-.285.367.367 0 0 0-.262-.42Zm-2.483-2.925a.81.81 0 0 1 1.11-.217.7.7 0 0 1 .277.465.825.825 0 0 1-.165.637l-.4.547-1.227-.847Zm-3.292 3.157-1.208 1.613-.75 1.012-2.467 3.278a.487.487 0 0 1-.172-.232c-.232-.622 1.387-3.832 1.5-4.275A1.71 1.71 0 0 1 15.922 8.2a4.275 4.275 0 0 1 .75-.217 7.5 7.5 0 0 1 1.252-.157Zm-2.558-3.135H11.25V.877Zm.592 11.67v6.893H.75V.75h9.75v4.312a.375.375 0 0 0 .382.375h5.108V7.41A2.55 2.55 0 0 0 14.145 9c-.127.382-1.867 3.832-1.5 4.755a1.275 1.275 0 0 0 .435.577l-1.448 1.928-.855 2.49a.66.66 0 0 0 0 .27.75.75 0 0 0 1.1.525l2.19-1.537 1.3-1.74a2.333 2.333 0 0 0 .593.089Zm-3.69.33 1.177.855-1.912 1.35Zm1.89-.75a2.767 2.767 0 0 0 .4.18l-.637.855-1.222-.885.7-.937a1.68 1.68 0 0 0 .765.772Zm2.587-2.752a11 11 0 0 0-1.875 0l5.49-7.35 1.23.885Z" data-name="Path 4837"/>
      <path d="M9.817 19.672H3.682a.382.382 0 0 1 0-.75h6.135a.382.382 0 0 1 0 .75Z" data-name="Path 4838"/>
      <path d="M7.545 16.5H3.7a.352.352 0 0 1-.33-.375.36.36 0 0 1 .33-.375h3.84a.376.376 0 0 1 0 .75Z" data-name="Path 4839"/>
    </g>
  </g>
</svg>
