<svg xmlns="http://www.w3.org/2000/svg" viewBox="0 0 24 23.96">
  <g data-name="Layer 2">
    <g fill="#001738" data-name="Layer 1">
      <path d="M19.716 5.888a.465.465 0 0 1-.465.465.457.457 0 0 1-.465-.465v-.842h-.854a.465.465 0 1 1 0-.929h1.311a.465.465 0 0 1 .465.465Z" data-name="Path 4834"/>
      <path d="m23.53 11.026-1.109-1.1a1.566 1.566 0 0 0-1.154-.465 1.394 1.394 0 0 0-.854.352l-.367-1.3c1.858-2.248 2.8-4.361 2.847-6.407a1.027 1.027 0 0 0-1.019-1.019 10.615 10.615 0 0 0-6.407 2.84l-1.3-.36a1.386 1.386 0 0 0 .345-.854 1.5 1.5 0 0 0-.465-1.154L12.949.445a1.5 1.5 0 0 0-2.068-.057L9.128 2.146 3.643.602a3.065 3.065 0 0 0-2.248.24l-1.154.646a.457.457 0 0 0-.24.343.48.48 0 0 0 .135.36l.052.045 5.126 3.747-.54.532a1.813 1.813 0 0 0 .082 2.555 1.821 1.821 0 0 0 2.445.195l1.146-.944 1.641 1.5c-.862 1.139-1.708 2.338-2.54 3.567l-4.969-2.25a.465.465 0 0 0-.51.09L.623 12.622a.45.45 0 0 0 0 .644l4.249 4.249c-.517.839-2.473 4.061-2.473 4.061l4.061-2.473 4.249 4.241a.45.45 0 0 0 .644 0l1.448-1.446a.472.472 0 0 0 .09-.51l-2.248-4.968q1.843-1.251 3.567-2.548l1.5 1.641-.944 1.154a1.873 1.873 0 0 0 2.735 2.526l.54-.54 3.747 5.118.052.052a.48.48 0 0 0 .36.135.45.45 0 0 0 .36-.232l.629-1.169a3 3 0 0 0 .232-2.248l-1.536-5.478 1.761-1.753a1.5 1.5 0 0 0-.116-2.052Zm-12-9.989a.54.54 0 0 1 .749.052l1.1 1.1a.629.629 0 0 1 .187.472.4.4 0 0 1-.165.33l-.322.27-3-.839ZM6.745 8.538a.914.914 0 0 1-1.214-.135.892.892 0 0 1-.082-1.259l.629-.637 1.671 1.2Zm1.986-1.207-7.411-5.4.517-.277a2.083 2.083 0 0 1 1.573-.166l11.24 3.155c-.517.472-1.034.974-1.566 1.536-.824.884-1.649 1.858-2.45 2.892ZM1.59 12.944l.9-.9 4.541 2.091c-.562.862-1.124 1.723-1.664 2.585Zm10.34 8.544-.9.9-3.745-3.749c.862-.547 1.723-1.1 2.585-1.671Zm-6.819-2.624a78.007 78.007 0 0 1 8.648-12.057c3.035-3.23 5.642-4.758 8.142-4.819l.075.082c-.052 2.5-1.626 5.163-4.811 8.138a79.912 79.912 0 0 1-12.054 8.656Zm11.72-.307a.892.892 0 0 1-1.259-.082.922.922 0 0 1-.135-1.251l.832-.989 1.2 1.656Zm5.65 2.008a2.031 2.031 0 0 1-.157 1.566l-.277.525-5.44-7.456-1.7-1.873c1.034-.8 2.008-1.619 2.892-2.45a17.986 17.986 0 0 0 1.5-1.559Zm.457-8.123-1.386 1.394-.839-3 .27-.33a.382.382 0 0 1 .33-.157.637.637 0 0 1 .465.18l1.109 1.109a.555.555 0 0 1 .052.8Z" data-name="Path 4835"/>
    </g>
  </g>
</svg>
