<svg xmlns="http://www.w3.org/2000/svg" data-name="Layer 2" viewBox="0 0 18 24">
  <g fill="#001738" data-name="Layer 1">
    <path d="M9 5.25a5.25 5.25 0 1 0 5.25 5.25A5.25 5.25 0 0 0 9 5.25ZM9 6a4.5 4.5 0 0 1 4.5 4.5 4.4 4.4 0 0 1-.8 2.535 5.625 5.625 0 0 0-7.417 0A4.5 4.5 0 0 1 9 6Zm0 9a4.5 4.5 0 0 1-3.233-1.38 4.86 4.86 0 0 1 6.465 0A4.455 4.455 0 0 1 9 15Z" data-name="Path 4823"/>
    <path d="M8.91 10.8a1.312 1.312 0 0 0 1.313-1.313v-.435a1.312 1.312 0 1 0-2.625 0v.435A1.313 1.313 0 0 0 8.91 10.8Zm-.563-1.748a.563.563 0 0 1 1.125 0v.435a.562.562 0 1 1-1.125 0Z" data-name="Path 4824"/>
    <path d="M16.5 1.5h-3.75V.75A.75.75 0 0 0 12 0H6a.75.75 0 0 0-.75.75v.75H1.5A1.5 1.5 0 0 0 0 3v19.5A1.5 1.5 0 0 0 1.5 24h15a1.5 1.5 0 0 0 1.5-1.5V3a1.5 1.5 0 0 0-1.5-1.5ZM6 .75h6V3H6ZM17.25 22.5a.75.75 0 0 1-.75.75h-15a.75.75 0 0 1-.75-.75V3a.75.75 0 0 1 .75-.75h3.75V3a.75.75 0 0 0 .75.75h6a.75.75 0 0 0 .75-.75v-.75h3.75a.75.75 0 0 1 .75.75Z" data-name="Path 4825"/>
    <path d="M13.845 18.27h-9.69a.375.375 0 0 1 0-.75h9.69a.375.375 0 0 1 0 .75Z" data-name="Path 4826"/>
    <path d="M12.375 20.52h-6.75a.375.375 0 0 1 0-.75h6.75a.375.375 0 1 1 0 .75Z" data-name="Path 4827"/>
  </g>
</svg>
