<svg xmlns="http://www.w3.org/2000/svg" viewBox="0 0 24 19.157">
  <path d="M22.287 15.659a4.834 4.834 0 0 0 .45-1.832c.06-.953 0-5.165 0-6.005 0-1.066-.608-3.438-4.241-3.438a6.133 6.133 0 0 0-1.689.21h-.2v-.841c0-1.164-.668-3.753-4.624-3.753-3.276-.015-4.304 1.749-4.514 2.985h-.578a1.149 1.149 0 0 1-.5 0 2.92 2.92 0 0 0-1.171-.278c-1.644 0-3 1.546-2.5 4.286v.083a.931.931 0 0 0-.758.209 1.629 1.629 0 0 0-.4 1.261 1.291 1.291 0 0 0 .458.938 1.276 1.276 0 0 0 .683.338 4.054 4.054 0 0 0 1.759 3.21v1.1C-.038 14.878 0 18.046 0 19.157h23.983a3.753 3.753 0 0 0-1.7-3.5ZM2.679 9.046a.668.668 0 0 1-.375-.5c0-.525.113-.668.15-.706s.09 0 .188 0h.038c-.001.402-.008.823-.001 1.206ZM16.612 5.33h.045a.631.631 0 0 1 .21 0 .143.143 0 0 1 .075 0c.06.06.2.263.2.9a.938.938 0 0 1-.525.7v-1.5Zm0 2.477a.338.338 0 0 1 0-.083 1.4 1.4 0 0 0 .751-.375 1.5 1.5 0 0 0 .525-1.081 2.447 2.447 0 0 0-.2-1.111 5.255 5.255 0 0 1 .8-.053c3.243 0 3.491 2.057 3.491 2.687v5.994a4.219 4.219 0 0 1-.375 1.546 6.073 6.073 0 0 0-1.073-.33 3.2 3.2 0 0 0-.27-.285v-.691a3.355 3.355 0 0 0 1.471-2.657c.045-.751 0-2.162 0-2.823a2.447 2.447 0 0 0-.1-.683 4.984 4.984 0 0 1-1.4-1.344 5.525 5.525 0 0 1-3.753 1.952 6.125 6.125 0 0 0 .12-.661Zm4.2 10.569h-7.391l-.12-1.066-.053-.458a.383.383 0 0 0 .293-.285l.083-.45h.068a.383.383 0 0 0 .293-.143l.571-.713.563-.7.751-.923.533.1a8.37 8.37 0 0 1 2.395.811 4.819 4.819 0 0 1 .751.5 3.446 3.446 0 0 1 .683.751 3.228 3.228 0 0 1 .443.938 4.369 4.369 0 0 1 .143.788v.571ZM4.226 15.239a3.063 3.063 0 0 1 .368-.308 4.647 4.647 0 0 1 .623-.4 8.775 8.775 0 0 1 2.665-.841h.18l1.5 1.847.4.488a.368.368 0 0 0 .293.143h.068l.083.428a.375.375 0 0 0 .293.293l-.173 1.5H3.122a4.339 4.339 0 0 1 .518-2.417 3.168 3.168 0 0 1 .586-.736Zm.953-1.5v-.154l.21.053Zm6.133.751-.5.33-.42.27-.54-.668-1-1.239.54-.8Zm-1.2-2.44a4.5 4.5 0 0 0 3.753 0l-1.892 2.035Zm1.17 6.335.165-1.5h1.051l.165 1.5Zm1.58-2.253h-1.775l-.083-.383.6-.383.368-.24.961.631Zm-.225-1.636 1.591-1.749.315-.345.435.653.1.15-.1.12-.691.863-.751.923Zm3.686-5.255a6.433 6.433 0 0 0 3.911-1.591 4.9 4.9 0 0 0 .751.683 1.224 1.224 0 0 1 0 .21v2.777a2.522 2.522 0 0 1-2.049 2.47 9.3 9.3 0 0 0-2.147-.751q-.443-.105-.946-.18l-.278-.413-.586-.788-.068-.105a.5.5 0 0 0-.113-.105l.18-.158a2.762 2.762 0 0 0 .3-.293 4.3 4.3 0 0 0 .751-1.051 4.5 4.5 0 0 0 .293-.706Zm-8.22-5.5a3.22 3.22 0 0 1 .116-.756C8.452 2.049 9.262.736 12.01.736c3.6 0 3.873 2.3 3.873 3v.18a1.779 1.779 0 0 0-1.959-.465 4.256 4.256 0 0 1-1.952.616 4.3 4.3 0 0 1-1.922-.623 1.757 1.757 0 0 0-1.952.458Zm0 1.411v-.15c.33-.4.886-.938 1.366-.938a.54.54 0 0 1 .255.053 4.894 4.894 0 0 0 2.252.706 4.939 4.939 0 0 0 2.252-.706c.518-.27 1.224.4 1.614.863v2.774a4.842 4.842 0 0 1-.1.751 4.369 4.369 0 0 1-.458 1.239 3.994 3.994 0 0 1-1.058 1.2 3.851 3.851 0 0 1-2.252.751 3.753 3.753 0 0 1-1.877-.5 3.386 3.386 0 0 1-.638-.45 4.166 4.166 0 0 1-1.359-3V5.863c-.023-.218-.023-.473-.023-.721ZM3.88 4.076l.053-.06a1.659 1.659 0 0 1 1.284-.555 2.072 2.072 0 0 1 .871.2 2 2 0 0 0 .751.12h.5v.8a1.058 1.058 0 0 0-.848.24 1.892 1.892 0 0 0-.45 1.449 2.575 2.575 0 0 1-1.4.36 5.15 5.15 0 0 1-1.2-.165h-.086A3.123 3.123 0 0 1 3.88 4.07Zm3.446 2.875a1.028 1.028 0 0 1-.435-.375.593.593 0 0 1-.1-.308 1.7 1.7 0 0 1 .128-.751.413.413 0 0 1 .084-.132.263.263 0 0 1 .2-.06h.12v.818c.003.275-.004.553.003.808ZM3.445 9.785V7.259a5.1 5.1 0 0 0 1.209.15 3.446 3.446 0 0 0 1.644-.383 1.629 1.629 0 0 0 .285.323 1.4 1.4 0 0 0 .751.375.338.338 0 0 1 0 .083 4.9 4.9 0 0 0 1.794 3.648.233.233 0 0 0-.113.1l-.27.405a3.055 3.055 0 0 1-2.252.976 3.145 3.145 0 0 1-3.048-3.151Zm-.2 5.42a4.864 4.864 0 0 0-.871 3.205H.713a3.446 3.446 0 0 1 2.537-3.205Zm18.2 1.666a2.169 2.169 0 0 0 .18-.713 2.3 2.3 0 0 1 .27.15 2.65 2.65 0 0 1 1.329 2.1h-1.662a6.471 6.471 0 0 0-.113-1.539Z" data-name="Path 4848"/>
</svg>
