<svg xmlns="http://www.w3.org/2000/svg" viewBox="0 0 24 21.62">
  <g data-name="Layer 2">
    <g fill="#001738" data-name="Layer 1">
      <path d="M7.144 16.391h-.1a.533.533 0 0 0 .053-.068.21.21 0 0 0 0-.1 2.937 2.937 0 0 0-.39-2.6 2.843 2.843 0 0 0-2.31-.615 3 3 0 0 1-.54 0 2.348 2.348 0 0 0-2.348.173 3.1 3.1 0 0 0-.908 3.2.615.615 0 0 0-.27.113 1.238 1.238 0 0 0-.321 1.014 1.013 1.013 0 0 0 .375.75 1.3 1.3 0 0 0 .21.15.428.428 0 0 1 0 .1 3.271 3.271 0 0 0 6.534 0v-.1a1.635 1.635 0 0 0 .218-.15 1.035 1.035 0 0 0 .375-.75A1.238 1.238 0 0 0 7.41 16.5a.675.675 0 0 0-.266-.109Zm-5.251-2.716a1.665 1.665 0 0 1 1.717-.127 2.138 2.138 0 0 0 .84.068 2.25 2.25 0 0 1 1.793.4 2.4 2.4 0 0 1 .263 2 2.43 2.43 0 0 1-.375-.263 1.853 1.853 0 0 0-1.26-.578 1.245 1.245 0 0 0-.818.473c-.855 1.02-2.363.645-2.851.488a2.475 2.475 0 0 1 .7-2.46Zm4.591 4.786A2.648 2.648 0 0 1 3.858 21.1a2.656 2.656 0 0 1-2.625-2.641v-1.68a4.5 4.5 0 0 0 1.193.173 2.663 2.663 0 0 0 2.123-.923.578.578 0 0 1 .375-.24 1.577 1.577 0 0 1 .8.428 1.545 1.545 0 0 0 .75.42 16.837 16.837 0 0 1 .023 1.823Z" data-name="Path 4840"/>
      <path d="M4.248 18.326H4.11v-.585a.323.323 0 1 0-.645 0v.893a.315.315 0 0 0 .323.315h.458a.312.312 0 1 0 0-.623Z" data-name="Path 4841"/>
      <path d="M20.264 13.315a3.466 3.466 0 0 0-3.754 3.406v4.156a.323.323 0 0 0 .308.315.338.338 0 0 0 .12 0l1.823-.735a2.415 2.415 0 0 0 3.061 0l1.74.75a.308.308 0 0 0 .293 0 .315.315 0 0 0 .143-.263v-4.223a3.473 3.473 0 0 0-3.736-3.406Zm0 7.051a1.928 1.928 0 0 1-1.9-1.92v-1.628a4.373 4.373 0 0 0 3.093-1.218 3.331 3.331 0 0 0 .683.653 1.088 1.088 0 0 1 0 .263v1.935a1.928 1.928 0 0 1-1.875 1.92Zm3.106.045-1.088-.465a2.731 2.731 0 0 0 .5-1.5v-1.948a2 2 0 0 0-.083-.548.308.308 0 0 0-.165-.2 3.121 3.121 0 0 1-.773-.818.33.33 0 0 0-.24-.135.308.308 0 0 0-.255.105 3.818 3.818 0 0 1-3.188 1.29.315.315 0 0 0-.315.308v1.965a2.745 2.745 0 0 0 .533 1.5l-1.11.443v-3.7a2.851 2.851 0 0 1 3.076-2.783 2.858 2.858 0 0 1 3.106 2.783Z" data-name="Path 4842"/>
      <path d="M20.61 18.266h-.1v-.473a.308.308 0 0 0-.615 0v.788a.308.308 0 0 0 .308.308h.407a.308.308 0 0 0 .308-.308.315.315 0 0 0-.308-.315Z" data-name="Path 4843"/>
      <path d="M16.888 5.446a1.583 1.583 0 0 0-.378-1.223.81.81 0 0 0-.353-.188V3.4c-.019-.347-.139-3.4-4.147-3.4S7.886 3.053 7.886 3.4v.638a.81.81 0 0 0-.353.188 1.583 1.583 0 0 0-.4 1.223 1.238 1.238 0 0 0 .45.923 1.38 1.38 0 0 0 .3.21v.173a4.126 4.126 0 1 0 8.252 0v-.176a1.38 1.38 0 0 0 .3-.21 1.238 1.238 0 0 0 .45-.923ZM12.01.75c3.211 0 3.376 2.205 3.376 2.648v.233a1.733 1.733 0 0 0-1.876-.525 3.383 3.383 0 0 1-1.5.5 3.383 3.383 0 0 1-1.5-.5 1.748 1.748 0 0 0-1.853.458V3.4c-.02-.444.145-2.65 3.353-2.65Zm3.376 5.926a3.376 3.376 0 1 1-6.751 0V4.613c.375-.42 1.125-1.05 1.515-.863a4.216 4.216 0 0 0 1.86.6 4.216 4.216 0 0 0 1.86-.6c.368-.188 1.08.405 1.5.938.04.736.048 1.512.018 1.988Z" data-name="Path 4844"/>
      <path d="M12.5 6.519h-.21v-.75a.375.375 0 1 0-.75 0v1.125a.375.375 0 0 0 .375.375h.585a.375.375 0 1 0 0-.75Z" data-name="Path 4845"/>
      <path d="M14.833 15.948h-2.25v-3.376a.375.375 0 1 0-.75 0v3.376H9.582a.375.375 0 0 0 0 .75h5.251a.375.375 0 0 0 0-.75Z" data-name="Path 4846"/>
    </g>
  </g>
</svg>
