<svg xmlns="http://www.w3.org/2000/svg" viewBox="0 0 23.999 24">
  <g data-name="Layer 2">
    <g data-name="Layer 1">
      <path d="M23.623 13.602H22.5v-3.521a1.882 1.882 0 0 0-1.125-1.717v-.615a1.762 1.762 0 0 0-.262-.922l.945-1.41a.922.922 0 0 0-.258-1.275L15.914.159a.922.922 0 0 0-1.282.243L12.2 4.029 7.447 1.952a.915.915 0 0 0-.7 0 .937.937 0 0 0-.51.495l-1.5 3.517H3.082a1.957 1.957 0 0 0-1.957 1.938v.532A2.032 2.032 0 0 0 0 10.254v11.7a2.047 2.047 0 0 0 2.047 2.048h18.4a2.047 2.047 0 0 0 2.053-2.049v-2.325h1.125a.375.375 0 0 0 .375-.375v-5.251a.375.375 0 0 0-.375-.4Zm-3-5.857v.457h-.435l.412-.61a1.14 1.14 0 0 1 .024.157ZM15.254.827a.187.187 0 0 1 .113-.075.18.18 0 0 1 .1 0l5.887 3.975a.2.2 0 0 1 .082.15.15.15 0 0 1 0 .1l-2.145 3.2h-.975l1.23-1.8a.375.375 0 0 0-.1-.517.607.607 0 0 1-.172-.832.375.375 0 0 0-.1-.525l-2.608-1.749a.352.352 0 0 0-.285-.06.367.367 0 0 0-.24.157.555.555 0 0 1-.367.247.622.622 0 0 1-.457-.1.382.382 0 0 0-.285-.06.4.4 0 0 0-.24.157l-1.05 1.56-.42.63-1.155 1.717-.817 1.2h-.95ZM14.1 8.202a.743.743 0 0 1 1.47-.21.66.66 0 0 1 0 .21Zm2.25 0a1.372 1.372 0 0 0 0-.352 1.5 1.5 0 0 0-2.962.352h-1.216L13.6 6.084l.7-1.035.84-1.26a1.312 1.312 0 0 0 .682.045 1.35 1.35 0 0 0 .6-.285l2.062 1.4a1.357 1.357 0 0 0 .27 1.275l-1.333 1.978Zm-10.088 0 1.08-2.542a1.3 1.3 0 0 0 .675-.082 1.342 1.342 0 0 0 .54-.382l2.2.967L9.4 8.202Zm-1.042-1.5.322-.75 1.4-3.225a.187.187 0 0 1 .1-.09H7.1a.112.112 0 0 1 .067 0l4.6 2.017-.585.877-2.625-1.149a.375.375 0 0 0-.285 0 .427.427 0 0 0-.21.2.577.577 0 0 1-.315.307.645.645 0 0 1-.472 0 .345.345 0 0 0-.285 0 .367.367 0 0 0-.24.18L5.422 8.202h-.877Zm-3.345 1.2a1.207 1.207 0 0 1 1.207-1.2h1.3l-.655 1.5h-1.68l-.172.052Zm19.874 14.051a1.3 1.3 0 0 1-1.3 1.3H2.047a1.3 1.3 0 0 1-1.3-1.3v-11.7a1.3 1.3 0 0 1 1.3-1.3h18.577a1.125 1.125 0 0 1 1.125 1.125v3.524h-.81v-.99a1.125 1.125 0 0 0-1.125-1.125H3.375a1.125 1.125 0 0 0-1.125 1.129v8a1.125 1.125 0 0 0 1.125 1.132h16.439a1.125 1.125 0 0 0 1.125-1.125v-1h.81Zm-1.56-9.337v.99H18a3 3 0 0 0 0 6h2.19v.99a.382.382 0 0 1-.375.375H3.375A.375.375 0 0 1 3 20.596v-7.98a.375.375 0 0 1 .375-.375h16.439a.382.382 0 0 1 .375.375Zm3.06 6.262H18a2.25 2.25 0 0 1 0-4.5h5.25Z" data-name="Path 4828"/>
      <path d="M16.851 16.621a1.5 1.5 0 1 0 1.5-1.5 1.5 1.5 0 0 0-1.5 1.5Zm1.5-.75a.311.311 0 1 1 0-.008Z" data-name="Path 4829"/>
    </g>
  </g>
</svg>
