<svg xmlns="http://www.w3.org/2000/svg" data-name="Layer 2" viewBox="0 0 24 24">
  <g fill="#001738" data-name="Layer 1">
    <path d="M22.875 24H1.125A1.125 1.125 0 0 1 0 22.875V1.125A1.125 1.125 0 0 1 1.125 0h21.75A1.125 1.125 0 0 1 24 1.125v21.75A1.125 1.125 0 0 1 22.875 24ZM1.125.75a.375.375 0 0 0-.375.375v21.75a.375.375 0 0 0 .375.375h21.75a.375.375 0 0 0 .375-.375V1.125a.375.375 0 0 0-.375-.375Z" data-name="Path 4813"/>
    <path d="M.375 4.5h23.25v.75H.375z" data-name="Rectangle 7625"/>
    <path d="M3.21 3.577a1.125 1.125 0 1 1 1.125-1.125A1.125 1.125 0 0 1 3.21 3.577Zm0-1.5a.375.375 0 1 0 .375.375.375.375 0 0 0-.375-.375Z" data-name="Path 4814"/>
    <path d="M6.465 3.577A1.125 1.125 0 1 1 7.59 2.452a1.125 1.125 0 0 1-1.125 1.125Zm0-1.5a.375.375 0 1 0 .375.375.375.375 0 0 0-.375-.375Z" data-name="Path 4815"/>
    <path d="M9.75 3.577a1.125 1.125 0 1 1 1.125-1.125A1.125 1.125 0 0 1 9.75 3.577Zm0-1.5a.375.375 0 1 0 .375.375.375.375 0 0 0-.375-.375Z" data-name="Path 4816"/>
    <path d="M6.983 12.983H2.767a.525.525 0 0 1-.518-.525V8.25a.517.517 0 0 1 .517-.517h4.217a.518.518 0 0 1 .517.517v4.208a.525.525 0 0 1-.518.525ZM3 12.233h3.75v-3.75H3Z" data-name="Path 4817"/>
    <path d="M21.233 12.983h-4.216a.525.525 0 0 1-.518-.525V8.25a.518.518 0 0 1 .517-.517h4.215a.518.518 0 0 1 .517.517v4.208a.525.525 0 0 1-.518.525Zm-3.983-.75H21v-3.75h-3.75Z" data-name="Path 4818"/>
    <path d="M14.108 12.983H9.892a.525.525 0 0 1-.517-.525V8.25a.517.517 0 0 1 .517-.517h4.215a.518.518 0 0 1 .517.517v4.208a.525.525 0 0 1-.518.525Zm-3.983-.75h3.75v-3.75h-3.75Z" data-name="Path 4819"/>
    <path d="M6.983 19.958H2.767a.518.518 0 0 1-.518-.518v-4.215a.518.518 0 0 1 .517-.518h4.217a.518.518 0 0 1 .517.518v4.215a.517.517 0 0 1-.517.517ZM3 19.208h3.75v-3.75H3Z" data-name="Path 4820"/>
    <path d="M21.233 19.958h-4.216a.518.518 0 0 1-.517-.518v-4.215a.518.518 0 0 1 .517-.518h4.215a.518.518 0 0 1 .517.518v4.215a.518.518 0 0 1-.518.517Zm-3.983-.75H21v-3.75h-3.75Z" data-name="Path 4821"/>
    <path d="M14.108 19.958H9.892a.518.518 0 0 1-.517-.518v-4.215a.518.518 0 0 1 .517-.518h4.215a.518.518 0 0 1 .517.518v4.215a.517.517 0 0 1-.517.517Zm-3.983-.75h3.75v-3.75h-3.75Z" data-name="Path 4822"/>
  </g>
</svg>
