<svg xmlns="http://www.w3.org/2000/svg" data-name="Layer 2" viewBox="0 0 24 24">
  <g fill="#001738" data-name="Layer 1">
    <path d="M24 16.86a7.118 7.118 0 0 0-2.168-5.115V2.82a1.125 1.125 0 0 0-1.125-1.125h-1.882v-.57a1.133 1.133 0 0 0-2.25 0v.57h-2.25v-.57a1.125 1.125 0 1 0-2.25 0v.57h-2.25v-.57a1.133 1.133 0 0 0-2.25 0v.57H5.25v-.57a1.125 1.125 0 1 0-2.25 0v.57H1.125A1.125 1.125 0 0 0 0 2.82v17.64a1.125 1.125 0 0 0 1.125 1.125h10.358A7.2 7.2 0 0 0 16.793 24h.06A7.155 7.155 0 0 0 24 16.86ZM17.318 1.11a.382.382 0 0 1 .75 0v3.75a.383.383 0 1 1-.75 0Zm-3 1.32h2.25v.75h-2.25Zm-1.5 1.5v-2.8a.375.375 0 0 1 .75 0v3.75a.375.375 0 0 1-.75 0Zm-3-1.463h2.25v.75h-2.25ZM8.25 1.125a.382.382 0 0 1 .75 0v3.75a.383.383 0 0 1-.375.383.383.383 0 0 1-.375-.383Zm-3 1.32H7.5V3.2H5.25Zm-1.5 1.5v-2.82a.375.375 0 0 1 .75 0v3.75a.375.375 0 0 1-.75 0ZM4.14 6a1.133 1.133 0 0 0 1.11-1.118v-.974H7.5v.975a1.133 1.133 0 1 0 2.25 0v-.975H12v.975a1.125 1.125 0 0 0 2.25 0v-.975h2.25v.975a1.132 1.132 0 1 0 2.25 0v-.975h.75v3H2.25v-3H3v.975A1.133 1.133 0 0 0 4.14 6Zm-3 14.82a.375.375 0 0 1-.375-.375V2.82a.375.375 0 0 1 .375-.375H3V3.2h-.75a.75.75 0 0 0-.75.75v3a.75.75 0 0 0 .75.75h17.325a.75.75 0 0 0 .75-.75v-3a.75.75 0 0 0-.75-.75h-.75v-.75h1.882a.375.375 0 0 1 .375.375v8.25a7.147 7.147 0 0 0-10.177 9.75Zm9.36-3.57h1.86a.383.383 0 0 0 .375-.375.375.375 0 0 0-.375-.375H10.5a6.368 6.368 0 0 1 1.628-3.9l.51.5a.371.371 0 1 0 .525-.525l-.495-.5A6.315 6.315 0 0 1 16.5 10.5v1.86a.375.375 0 0 0 .75 0V10.5a6.322 6.322 0 0 1 3.9 1.628l-.48.48a.379.379 0 0 0 .262.645.382.382 0 0 0 .27-.112l.48-.48A6.405 6.405 0 0 1 23.25 16.5h-1.9a.375.375 0 0 0 0 .75h1.9a6.375 6.375 0 0 1-1.612 3.87l-.48-.472a.374.374 0 0 0-.532.525l.48.48a6.4 6.4 0 0 1-3.9 1.6v-1.871a.375.375 0 0 0-.75 0v1.868a6.4 6.4 0 0 1-3.862-1.6l.5-.5a.383.383 0 0 0 0-.533.375.375 0 0 0-.532 0l-.5.495A6.315 6.315 0 0 1 10.5 17.25Z" data-name="Path 4830"/>
    <path d="M6.165 9.172H3.637a.615.615 0 0 0-.615.615v2.527a.615.615 0 0 0 .615.615h2.528a.615.615 0 0 0 .585-.615V9.788a.608.608 0 0 0-.585-.616Zm-.135 3H3.75v-2.25H6Z" data-name="Path 4831"/>
    <path d="M6.165 15.405H3.637a.615.615 0 0 0-.615.615v2.528a.615.615 0 0 0 .615.615h2.528a.615.615 0 0 0 .585-.615V16.02a.615.615 0 0 0-.585-.615Zm-.135 3H3.75v-2.25H6Z" data-name="Path 4832"/>
    <path d="m13.77 15.825 1.98 1.118a1.125 1.125 0 1 0 2.04-.75l1.365-2.393a.368.368 0 0 0-.142-.51.375.375 0 0 0-.51.135l-1.365 2.325a1.125 1.125 0 0 0-1.2.427l-1.8-1.028a.375.375 0 1 0-.368.653Zm2.73.847a.376.376 0 1 1 .142.51.368.368 0 0 1-.143-.51Z" data-name="Path 4833"/>
  </g>
</svg>
